<?xml version="1.0" standalone="no"?>
<!DOCTYPE svg PUBLIC "-//W3C//DTD SVG 20010904//EN"
 "http://www.w3.org/TR/2001/REC-SVG-20010904/DTD/svg10.dtd">
<svg version="1.0" xmlns="http://www.w3.org/2000/svg"
 width="50.000000pt" height="40.000000pt" viewBox="0 0 387.000000 399.000000"
 preserveAspectRatio="xMidYMid meet">
<metadata>
Created by potrace 1.15, written by Peter Selinger 2001-2017
</metadata>
<g transform="translate(0.000000,399.000000) scale(0.100000,-0.100000)"
fill="#000000" stroke="none">
<path d="M468 3950 c-49 -27 -92 -80 -139 -175 -104 -211 -129 -547 -53 -715
33 -73 99 -136 161 -153 l43 -11 0 -81 0 -80 -155 -78 c-139 -70 -292 -152
-305 -164 -6 -6 52 -113 62 -113 5 0 43 20 86 44 172 97 436 223 622 297 45
17 310 109 316 109 1 0 -33 -35 -75 -77 -221 -224 -376 -524 -476 -923 -14
-52 -30 -131 -38 -175 l-13 -80 -110 -53 c-138 -68 -362 -190 -369 -202 -8
-12 44 -110 58 -110 6 0 71 34 146 74 517 284 1087 468 1554 501 93 7 97 7 97
-13 0 -13 10 -23 29 -30 107 -37 274 -194 350 -327 55 -96 114 -267 137 -400
39 -216 17 -622 -46 -879 -11 -43 -20 -82 -20 -86 0 -8 121 -43 127 -36 16 16
67 296 83 455 13 133 13 373 -1 481 -30 245 -88 417 -196 588 -36 56 -169 197
-228 241 l-30 22 64 -5 c35 -3 83 -6 107 -6 30 0 42 -4 39 -13 -3 -7 20 -28
53 -49 31 -20 94 -71 140 -113 l82 -77 48 43 c26 24 48 46 50 50 2 4 -25 32
-60 63 -72 64 -68 67 55 37 195 -46 443 -268 598 -533 153 -261 269 -660 295
-1011 l7 -97 68 0 68 0 -5 68 c-17 211 -62 477 -105 621 -87 285 -219 543
-373 723 l-57 67 38 -16 c125 -52 356 -184 488 -278 44 -32 84 -59 90 -61 10
-4 78 83 77 100 0 5 -31 31 -68 57 -188 133 -375 237 -579 325 l-120 52 0 107
0 108 40 12 c168 49 260 227 272 527 l6 126 101 -61 c55 -34 139 -90 186 -124
l85 -62 43 47 c23 25 42 51 42 57 0 20 -235 179 -392 264 -67 37 -78 47 -82
74 -35 231 -60 332 -113 457 -55 129 -138 240 -205 276 -128 67 -320 -128
-409 -416 -12 -41 -26 -79 -29 -83 -4 -4 -72 2 -151 14 -195 30 -611 33 -829
6 -183 -23 -415 -74 -623 -137 -148 -45 -208 -67 -364 -129 l-53 -21 0 53 c0
50 2 53 37 72 84 45 128 122 151 263 14 81 14 116 4 236 -18 208 -56 343 -126
450 -65 97 -134 126 -208 86z m122 -216 c84 -176 111 -524 50 -644 -23 -45
-41 -57 -96 -65 -73 -11 -140 46 -165 138 -15 58 -12 269 6 362 19 101 57 197
101 258 35 47 36 48 55 31 11 -10 33 -46 49 -80z m2470 -349 c107 -134 178
-383 201 -702 17 -245 -5 -398 -74 -499 -45 -67 -92 -89 -187 -89 -113 1 -177
42 -232 149 -36 71 -49 137 -55 281 -14 359 78 699 233 860 60 63 64 63 114 0z
m-1010 -442 c-264 -205 -405 -511 -427 -925 -3 -65 -9 -118 -12 -118 -4 0 -72
-11 -151 -26 -226 -39 -585 -144 -754 -218 -31 -14 -56 -21 -56 -15 0 26 55
237 86 334 107 326 262 573 470 752 137 117 280 193 399 211 l55 9 -78 -72
-77 -73 25 -27 c14 -15 36 -35 50 -45 l25 -18 65 60 c36 33 97 82 135 110 39
27 71 55 71 61 1 7 2 15 3 20 0 4 47 7 104 7 l102 0 -35 -27z m395 -3 c148
-20 150 -21 148 -61 -1 -18 -5 -124 -9 -235 -6 -167 -4 -214 10 -284 44 -216
140 -339 299 -385 l57 -16 0 -84 0 -84 -47 15 c-27 8 -64 19 -85 24 -20 6 -62
22 -94 36 -38 16 -59 22 -64 14 -4 -7 -22 -7 -60 0 -202 38 -568 59 -754 43
l-98 -9 6 86 c36 453 181 725 479 896 37 21 67 45 67 52 0 11 9 13 33 9 17 -4
68 -11 112 -17z"/>
<path d="M1236 2390 c-26 -55 -61 -136 -76 -180 l-29 -79 52 -16 c29 -9 57
-18 63 -20 7 -2 26 35 45 83 18 48 50 122 71 165 21 43 36 82 33 86 -7 12 -91
61 -103 61 -5 0 -30 -45 -56 -100z"/>
<path d="M2824 1288 l-51 -31 52 -111 c29 -61 60 -135 70 -163 9 -29 20 -55
24 -57 12 -8 113 27 118 40 8 23 -137 355 -155 353 -4 0 -30 -14 -58 -31z"/>
<path d="M3105 595 c-5 -2 -32 -6 -59 -10 l-48 -7 6 -58 c4 -32 7 -112 7 -178
0 -135 -3 -132 86 -132 l41 0 7 66 c10 88 -8 325 -24 323 -3 0 -10 -2 -16 -4z"/>
</g>
</svg>
