<?xml version="1.0" standalone="no"?>
<!DOCTYPE svg PUBLIC "-//W3C//DTD SVG 20010904//EN"
 "http://www.w3.org/TR/2001/REC-SVG-20010904/DTD/svg10.dtd">
<svg version="1.0" xmlns="http://www.w3.org/2000/svg"
 width="100.000000pt" height="40.000000pt" viewBox="0 0 483.000000 185.000000"
 preserveAspectRatio="xMidYMid meet">
<metadata>
Created by potrace 1.15, written by Peter Selinger 2001-2017
</metadata>
<g transform="translate(0.000000,185.000000) scale(0.100000,-0.100000)"
fill="#000000" stroke="none">
<path d="M212 1805 c-79 -66 -119 -305 -67 -404 9 -18 32 -42 51 -53 28 -16
34 -26 34 -54 0 -32 -3 -36 -87 -78 -49 -24 -96 -51 -106 -58 -18 -13 -18 -15
1 -38 l19 -23 109 55 c112 58 199 96 293 129 l53 19 -39 -43 c-57 -62 -108
-146 -148 -240 -33 -81 -75 -228 -75 -264 0 -14 -31 -34 -115 -78 -63 -32
-115 -62 -115 -66 0 -4 8 -17 18 -29 l18 -22 114 60 c189 99 381 165 555 191
138 20 159 22 153 15 -4 -3 21 -25 55 -48 76 -50 130 -125 160 -221 19 -60 22
-92 22 -230 -1 -114 -6 -179 -17 -225 -9 -36 -14 -68 -10 -72 4 -4 19 -10 33
-13 27 -7 27 -6 45 92 25 130 25 341 1 433 -26 98 -71 182 -129 239 l-51 51
33 0 c26 0 49 -13 105 -58 67 -55 72 -58 93 -44 26 17 28 29 5 54 -15 17 -15
18 8 18 31 0 111 -49 167 -103 116 -111 202 -297 232 -503 6 -43 13 -94 16
-111 4 -29 9 -33 36 -33 l31 0 -6 83 c-15 184 -102 429 -191 536 -20 24 -36
45 -36 48 0 9 174 -90 219 -124 24 -18 47 -33 50 -33 8 1 44 50 39 55 -1 1
-42 28 -89 58 -78 51 -170 99 -242 126 -24 9 -27 16 -27 56 0 41 2 46 34 59
64 27 102 99 113 218 7 80 2 79 104 12 l72 -48 18 23 c11 13 19 26 19 30 0 8
-138 100 -186 124 -27 14 -32 22 -38 70 -15 132 -79 264 -142 294 -30 15 -35
14 -65 -4 -42 -24 -82 -80 -114 -158 l-24 -60 -63 5 c-35 3 -139 4 -233 4
-147 -1 -187 -5 -290 -29 -66 -15 -168 -44 -227 -65 -119 -42 -137 -36 -74 23
46 44 60 99 53 212 -7 112 -29 185 -68 230 -37 42 -66 45 -107 10z m81 -104
c15 -34 22 -74 25 -153 4 -103 4 -107 -21 -132 -28 -28 -55 -26 -84 6 -15 17
-18 38 -18 122 0 91 3 107 28 159 16 32 33 54 39 51 6 -4 20 -27 31 -53z
m1152 -191 c37 -73 55 -156 62 -280 6 -134 -5 -189 -47 -232 -36 -35 -94 -39
-134 -7 -47 37 -60 82 -59 204 0 163 36 288 101 357 31 33 42 27 77 -42z
m-536 -195 c-31 -31 -68 -79 -82 -108 -35 -69 -67 -196 -67 -267 l0 -58 -92
-16 c-51 -10 -151 -36 -221 -60 l-128 -42 6 34 c12 63 57 187 97 264 68 132
214 266 310 284 l33 7 -30 -32 -29 -31 21 -22 21 -21 74 61 c58 48 80 61 108
62 l34 0 -55 -55z m283 30 c10 -4 13 -38 13 -148 0 -140 0 -143 31 -196 28
-50 65 -80 117 -95 12 -4 17 -16 17 -41 0 -19 -2 -35 -5 -35 -2 0 -28 9 -57
19 -71 26 -207 41 -362 41 l-127 0 6 58 c12 96 25 144 60 217 36 74 63 106
141 161 44 31 54 34 101 29 28 -3 57 -7 65 -10z"/>
<path d="M4720 1045 l0 -114 -42 19 c-110 50 -221 0 -269 -120 -18 -44 -18
-192 0 -243 16 -46 63 -102 102 -123 41 -21 132 -18 179 6 34 17 40 18 40 5 0
-11 11 -15 45 -15 l45 0 0 350 0 350 -50 0 -50 0 0 -115z m-50 -180 c44 -23
50 -43 50 -163 0 -100 -2 -110 -23 -130 -81 -76 -185 -27 -203 96 -8 52 10
138 34 168 38 45 90 56 142 29z"/>
<path d="M2050 795 l0 -335 50 0 50 0 0 130 0 131 71 -3 71 -3 68 -125 68
-125 56 -3 c31 -2 56 1 56 6 0 5 -31 66 -70 136 -38 69 -70 130 -70 134 0 4
16 17 35 29 48 31 75 89 75 158 0 70 -17 112 -63 152 -47 41 -107 53 -267 53
l-130 0 0 -335z m297 228 c22 -10 41 -29 49 -49 18 -43 18 -58 -2 -99 -22 -48
-66 -65 -163 -65 l-81 0 0 115 0 115 81 0 c55 0 92 -5 116 -17z"/>
<path d="M2620 795 l0 -335 51 0 50 0 -3 240 c-2 132 0 233 5 223 4 -10 47
-117 96 -238 l90 -220 43 -3 44 -3 96 238 97 238 1 -237 0 -238 50 0 50 0 0
335 0 335 -64 0 -64 0 -104 -260 -104 -261 -104 261 -104 260 -63 0 -63 0 0
-335z"/>
<path d="M3545 958 c-54 -19 -97 -59 -123 -117 -22 -46 -26 -71 -27 -141 0
-105 27 -168 94 -215 37 -26 53 -30 119 -33 89 -4 132 10 180 59 18 18 32 35
31 38 0 3 -13 17 -30 29 l-29 24 -35 -31 c-19 -16 -50 -33 -69 -36 -40 -8 -97
8 -119 33 -17 19 -47 84 -47 102 0 6 59 10 166 10 l167 0 -5 73 c-5 75 -29
137 -66 170 -46 41 -142 58 -207 35z m124 -94 c21 -15 51 -70 51 -94 0 -6 -41
-10 -110 -10 -70 0 -110 4 -110 10 0 20 32 75 54 92 27 22 85 23 115 2z"/>
<path d="M4079 961 c-14 -5 -38 -16 -52 -26 -26 -17 -27 -17 -27 4 0 19 -6 21
-50 21 l-50 0 0 -250 0 -250 50 0 50 0 0 170 c0 142 3 175 16 196 37 56 118
71 159 29 25 -24 25 -26 25 -210 l0 -185 50 0 50 0 0 198 c0 215 -6 245 -61
284 -28 21 -120 32 -160 19z"/>
</g>
</svg>
